<svg width="200" height="20" viewBox="0 0 200 20" fill="none"
    xmlns="http://www.w3.org/2000/svg">
    <path d="M0 18.8544V0.662193H3.53074V15.7336H13.8799V18.8544H0Z" fill="white"/>
    <path d="M15.9784 18.8544V0.662193H19.5091V18.8544H15.9784Z" fill="white"/>
    <path d="M35.8329 0.662193H39.709L32.8395 18.8544H28.2597L21.2366 0.662193H25.1895L30.6263 15.1754L35.8329 0.662193Z" fill="white"/>
    <path d="M41.5133 18.8544V11.3551H45.044V8.15864H41.5133V0.662193H55.3932V3.78304H45.044V8.15864H53.8197V11.3551H45.044V15.7336H55.6618V18.8544H41.5133Z" fill="white"/>
    <path d="M58.3104 18.8544V0.662193H66.5616C70.1307 0.662193 72.4589 2.45817 72.4589 6.04333C72.4589 9.22843 70.1307 11.3742 66.5616 11.3742H61.8411V18.8544H58.3104ZM61.8411 8.13989H66.165C67.956 8.13989 68.9154 7.28056 68.9154 6.00551C68.9154 4.63297 67.956 3.78304 66.165 3.78304H61.8411V8.13989Z" fill="white"/>
    <path d="M74.8773 18.8544V11.3551H78.408V8.15864H74.8773V0.662193H88.7571V3.78304H78.408V8.15864H87.1837V11.3551H78.408V15.7336H89.0258V18.8544H74.8773Z" fill="white"/>
    <path d="M91.6744 18.8544V11.3551H95.2051V8.15864H91.6744V0.662193H105.554V3.78304H95.2051V8.15864H103.981V11.3551H95.2051V15.7336H105.823V18.8544H91.6744Z" fill="white"/>
    <path d="M108.471 18.8544V0.662193H116.991C120.219 0.662854 122.62 2.23117 122.62 5.19382C122.62 7.45071 121.597 8.8233 119.499 9.59716C121.405 9.59716 122.351 10.4598 122.351 12.1725V18.8544H118.821V13.0478C118.821 11.7412 118.437 11.3606 117.119 11.3606H112.002V18.8544H108.471ZM112.002 8.15187H115.942C118.002 8.15187 119.076 7.46967 119.076 5.97966C119.076 4.48965 118.04 3.78304 115.942 3.78304H112.002V8.15187Z" fill="white"/>
    <path d="M131.879 18.9339V0.657095H138.404C143.477 0.618859 146.944 4.14932 146.893 9.79551C146.944 15.4544 143.477 18.9849 138.404 18.9339H131.879ZM134.491 16.5888H138.149C142.088 16.5888 144.28 14.2181 144.28 9.79551C144.28 5.39836 142.088 3.01498 138.149 3.01498H134.491V16.5888Z" fill="#2B9A66"/>
    <path d="M148.978 9.79551C148.914 4.04736 152.661 0.351207 157.594 0.402188C162.526 0.351207 166.273 4.04736 166.21 9.79551C166.273 15.5437 162.526 19.2398 157.594 19.1888C152.661 19.2398 148.914 15.5437 148.978 9.79551ZM157.466 16.8437H157.721C161.111 16.8947 163.635 14.1289 163.597 9.79551C163.635 5.46209 161.111 2.69635 157.721 2.74733H157.466C154.089 2.7091 151.54 5.46209 151.591 9.79551C151.54 14.1289 154.089 16.8819 157.466 16.8437Z" fill="#2B9A66"/>
    <path d="M168.244 9.79551C168.244 8.01116 168.588 6.40525 169.289 4.97777C169.99 3.55029 170.984 2.4287 172.284 1.62574C173.597 0.810039 175.113 0.402188 176.86 0.402188C180.747 0.363952 183.971 2.78557 184.175 6.40525H181.563C181.308 4.2003 179.46 2.74733 176.987 2.74733H176.732C173.049 2.69635 170.818 5.8572 170.856 9.79551C170.818 13.7338 173.049 16.8947 176.732 16.8437H176.987C179.46 16.8437 181.308 15.3907 181.563 13.1858H184.175C183.971 16.8055 180.747 19.2398 176.86 19.1888C175.113 19.1888 173.597 18.781 172.284 17.978C170.984 17.1623 169.99 16.0407 169.289 14.6133C168.588 13.1858 168.244 11.5799 168.244 9.79551Z" fill="#2B9A66"/>
    <path d="M185.802 13.0583H188.414C188.414 15.5054 190.301 16.8437 193.079 16.8437H193.347C195.73 16.8437 197.132 15.6329 197.132 14.1034C197.132 12.625 196.202 11.7583 194.252 11.3632L191.333 10.7642C188.338 10.1524 186.707 8.46999 186.707 5.62778C186.656 2.77282 189.396 0.351207 193.232 0.402188C197.273 0.402188 199.873 2.63262 200 6.13759H197.387C197.26 4.07285 195.59 2.74733 193.372 2.74733H193.105C190.874 2.74733 189.319 3.97089 189.319 5.58955C189.319 6.96604 190.25 7.83273 191.83 8.15136L194.749 8.7249C198.075 9.37491 199.732 11.1338 199.732 14.0015C199.771 17.1496 196.992 19.2143 192.977 19.1888C188.644 19.1888 185.929 17.0731 185.802 13.0583Z" fill="#2B9A66"/>
</svg>
