<svg width="200" height="30" viewBox="0 0 200 30" fill="none" xmlns="http://www.w3.org/2000/svg">
<path d="M0 23.8553V5.66308H3.53074V20.7345H13.8799V23.8553H0Z" fill="white"/>
<path d="M15.9784 23.8553V5.66308H19.5091V23.8553H15.9784Z" fill="white"/>
<path d="M35.8329 5.66308H39.709L32.8395 23.8553H28.2597L21.2366 5.66308H25.1895L30.6263 20.1763L35.8329 5.66308Z" fill="white"/>
<path d="M41.5133 23.8553V16.356H45.044V13.1595H41.5133V5.66308H55.3932V8.78392H45.044V13.1595H53.8197V16.356H45.044V20.7345H55.6618V23.8553H41.5133Z" fill="white"/>
<path d="M58.3104 23.8553V5.66308H66.5616C70.1307 5.66308 72.4589 7.45905 72.4589 11.0442C72.4589 14.2293 70.1307 16.3751 66.5616 16.3751H61.8411V23.8553H58.3104ZM61.8411 13.1408H66.165C67.956 13.1408 68.9154 12.2814 68.9154 11.0064C68.9154 9.63386 67.956 8.78392 66.165 8.78392H61.8411V13.1408Z" fill="white"/>
<path d="M74.8773 23.8553V16.356H78.408V13.1595H74.8773V5.66308H88.7571V8.78392H78.408V13.1595H87.1837V16.356H78.408V20.7345H89.0258V23.8553H74.8773Z" fill="white"/>
<path d="M91.6744 23.8553V16.356H95.2051V13.1595H91.6744V5.66308H105.554V8.78392H95.2051V13.1595H103.981V16.356H95.2051V20.7345H105.823V23.8553H91.6744Z" fill="white"/>
<path d="M108.471 23.8553V5.66308H116.991C120.219 5.66374 122.62 7.23206 122.62 10.1947C122.62 12.4516 121.597 13.8242 119.499 14.598C121.405 14.598 122.351 15.4607 122.351 17.1734V23.8553H118.821V18.0487C118.821 16.742 118.437 16.3615 117.119 16.3615H112.002V23.8553H108.471ZM112.002 13.1528H115.942C118.002 13.1528 119.076 12.4706 119.076 10.9805C119.076 9.49054 118.04 8.78392 115.942 8.78392H112.002V13.1528Z" fill="white"/>
<path d="M131.879 23.9348V5.65798H138.404C143.477 5.61974 146.944 9.15021 146.893 14.7964C146.944 20.4553 143.477 23.9858 138.404 23.9348H131.879ZM134.491 21.5897H138.149C142.088 21.5897 144.28 19.219 144.28 14.7964C144.28 10.3992 142.088 8.01587 138.149 8.01587H134.491V21.5897Z" fill="#2B9A66"/>
<path d="M148.978 14.7964C148.914 9.04824 152.661 5.35209 157.594 5.40307C162.526 5.35209 166.273 9.04824 166.21 14.7964C166.273 20.5445 162.526 24.2407 157.594 24.1897C152.661 24.2407 148.914 20.5445 148.978 14.7964ZM157.466 21.8446H157.721C161.111 21.8956 163.635 19.1298 163.597 14.7964C163.635 10.463 161.111 7.69724 157.721 7.74822H157.466C154.089 7.70998 151.54 10.463 151.591 14.7964C151.54 19.1298 154.089 21.8828 157.466 21.8446Z" fill="#2B9A66"/>
<path d="M168.244 14.7964C168.244 13.012 168.588 11.4061 169.289 9.97865C169.99 8.55117 170.984 7.42958 172.284 6.62663C173.597 5.81092 175.113 5.40307 176.86 5.40307C180.747 5.36484 183.971 7.78645 184.175 11.4061H181.563C181.308 9.20119 179.46 7.74822 176.987 7.74822H176.732C173.049 7.69724 170.818 10.8581 170.856 14.7964C170.818 18.7347 173.049 21.8956 176.732 21.8446H176.987C179.46 21.8446 181.308 20.3916 181.563 18.1867H184.175C183.971 21.8063 180.747 24.2407 176.86 24.1897C175.113 24.1897 173.597 23.7819 172.284 22.9789C170.984 22.1632 169.99 21.0416 169.289 19.6141C168.588 18.1867 168.244 16.5807 168.244 14.7964Z" fill="#2B9A66"/>
<path d="M185.802 18.0592H188.414C188.414 20.5063 190.301 21.8446 193.079 21.8446H193.347C195.73 21.8446 197.132 20.6338 197.132 19.1043C197.132 17.6259 196.202 16.7592 194.252 16.3641L191.333 15.765C188.338 15.1533 186.707 13.4709 186.707 10.6287C186.656 7.77371 189.396 5.35209 193.232 5.40307C197.273 5.40307 199.873 7.63351 200 11.1385H197.387C197.26 9.07373 195.59 7.74822 193.372 7.74822H193.105C190.874 7.74822 189.319 8.97177 189.319 10.5904C189.319 11.9669 190.25 12.8336 191.83 13.1522L194.749 13.7258C198.075 14.3758 199.732 16.1347 199.732 19.0024C199.771 22.1505 196.992 24.2152 192.977 24.1897C188.644 24.1897 185.929 22.074 185.802 18.0592Z" fill="#2B9A66"/>
</svg>
