<svg width="1110" height="177" viewBox="0 0 1110 177" fill="none"
    xmlns="http://www.w3.org/2000/svg">
    <g clip-path="url(#clip0_1_2)">
        <path fill-rule="evenodd" clip-rule="evenodd" d="M53.3346 0H34.2151V18.883H53.3346V0ZM17.1069 6.56513e-05H0V138.144H17.1069V6.56513e-05ZM225.909 35.7698C208.511 35.7698 194.951 44.6133 187.787 56.4889C182.158 65.8377 180.111 76.4499 180.111 88.3255C180.111 102.475 184.205 115.614 192.648 125.216C200.324 134.312 211.837 140.123 226.165 140.123C235.632 140.123 244.587 137.344 251.751 132.543C259.938 126.984 265.823 117.888 267.358 108.034H250.727C249.448 113.34 247.657 116.119 244.843 118.899C240.749 123.194 234.097 125.468 226.165 125.468C218.489 125.468 212.349 122.942 207.743 118.393C201.603 112.329 198.021 102.475 198.021 93.3789H269.405L269.661 83.2721C269.917 69.8805 265.056 56.9942 256.868 48.1507C249.192 40.5705 238.958 35.7698 225.909 35.7698ZM198.274 79.2295C198.785 64.5745 207.74 49.9196 225.906 49.9196C234.861 49.9196 241.514 53.457 245.863 59.0157C249.957 64.3218 252.004 71.902 252.004 79.2295H198.274ZM327.819 36.7786C316.623 36.7786 303.645 42.3233 297.792 52.1527L294.739 39.2989H281.761V176.91H298.556V126.755C303.9 135.829 316.877 140.869 327.565 140.869C339.27 140.869 348.431 136.837 355.047 130.788C365.225 121.21 370.315 105.584 370.315 88.4458C370.315 72.0635 365.48 56.9414 355.81 47.3641C349.703 40.8111 340.033 36.7786 327.819 36.7786ZM325.027 127.019C317.648 127.019 312.813 123.994 308.741 120.466C300.344 113.157 297.545 101.311 297.545 88.9613C297.545 76.6116 300.344 64.5138 308.741 57.4569C312.813 53.9284 317.648 50.9039 325.027 50.9039C347.42 50.9039 353.273 70.8147 353.273 88.9613C353.273 107.108 347.42 127.019 325.027 127.019ZM390.067 56.4889C397.231 44.6133 410.791 35.7698 428.19 35.7698C441.238 35.7698 451.473 40.5705 459.148 48.1507C467.336 56.9942 472.197 69.8805 471.941 83.2721L471.685 93.3789H400.301C400.301 102.475 403.883 112.329 410.024 118.393C414.629 122.942 420.77 125.468 428.445 125.468C436.377 125.468 443.029 123.194 447.123 118.899C449.937 116.119 451.728 113.34 453.008 108.034H469.638C468.103 117.888 462.219 126.984 454.031 132.543C446.867 137.344 437.912 140.123 428.445 140.123C414.117 140.123 402.604 134.312 394.928 125.216C386.485 115.614 382.391 102.475 382.391 88.3255C382.391 76.4499 384.438 65.8377 390.067 56.4889ZM428.184 49.9196C410.018 49.9196 401.063 64.5745 400.552 79.2295H454.282C454.282 71.902 452.235 64.3218 448.141 59.0157C443.791 53.457 437.139 49.9196 428.184 49.9196ZM528.81 35.7732C511.411 35.7732 497.851 44.6167 490.687 56.4923C485.058 65.8411 483.011 76.4534 483.011 88.3289C483.011 102.479 487.105 115.617 495.548 125.219C503.224 134.315 514.738 140.127 529.066 140.127C538.532 140.127 547.487 137.347 554.651 132.546C562.839 126.988 568.723 117.892 570.259 108.037H553.628C552.349 113.343 550.558 116.123 547.743 118.902C543.649 123.198 536.997 125.472 529.066 125.472C521.39 125.472 515.249 122.945 510.644 118.397C504.503 112.333 500.921 102.479 500.921 93.3824H572.305L572.561 83.2755C572.817 69.8839 567.956 56.9976 559.768 48.1541C552.093 40.574 541.858 35.7732 528.81 35.7732ZM501.174 79.2292C501.686 64.5743 510.641 49.9193 528.807 49.9193C537.762 49.9193 544.414 53.4567 548.764 59.0155C552.857 64.3216 554.904 71.9018 554.904 79.2292H501.174ZM640 51.4028L636.175 39.2643L600.723 51.6557L597.662 38.7585H584.655V138.143H601.488V67.5876L640 51.4028ZM34.2139 38.7585H51.3208V138.143H34.2139V38.7585Z" fill="white"/>
        <path fill-rule="evenodd" clip-rule="evenodd" d="M130.082 36.4227H109.269V57.2357H130.082V36.4227ZM130.082 119.674H109.269V140.487H130.082V119.674ZM150.894 36.4227H171.707V57.2357H150.894V36.4227ZM88.4546 36.4233H67.6416V57.2363H88.4546V36.4233ZM130.081 78.0481H150.894V98.8611H130.081V78.0481ZM109.269 78.0481H88.4558V98.8611H109.269V78.0481Z" fill="white"/>
        <path d="M692.758 137V37.5723H728.258C755.854 37.3643 774.713 56.5703 774.436 87.2861C774.713 118.071 755.854 137.277 728.258 137H692.758ZM706.972 124.242H726.871C748.296 124.242 760.222 111.346 760.222 87.2861C760.222 63.3652 748.296 50.3994 726.871 50.3994H706.972V124.242ZM788.441 87.2861C788.095 56.0156 808.479 35.9082 835.312 36.1855C862.146 35.9082 882.53 56.0156 882.184 87.2861C882.53 118.557 862.146 138.664 835.312 138.387C808.479 138.664 788.095 118.557 788.441 87.2861ZM834.619 125.629H836.006C854.449 125.906 868.178 110.86 867.97 87.2861C868.178 63.7119 854.449 48.666 836.006 48.9434H834.619C816.245 48.7354 802.378 63.7119 802.655 87.2861C802.378 110.86 816.245 125.837 834.619 125.629ZM895.912 87.2861C895.912 77.5791 897.784 68.8428 901.598 61.0771C905.411 53.3115 910.819 47.21 917.892 42.8418C925.033 38.4043 933.284 36.1855 942.783 36.1855C963.931 35.9775 981.473 49.1514 982.582 68.8428H968.368C966.981 56.8477 956.928 48.9434 943.477 48.9434H942.09C922.052 48.666 909.918 65.8613 910.126 87.2861C909.918 108.711 922.052 125.906 942.09 125.629H943.477C956.928 125.629 966.981 117.725 968.368 105.729H982.582C981.473 125.421 963.931 138.664 942.783 138.387C933.284 138.387 925.033 136.168 917.892 131.8C910.819 127.362 905.411 121.261 901.598 113.495C897.784 105.729 895.912 96.9932 895.912 87.2861ZM994.092 105.036H1008.31C1008.31 118.349 1018.57 125.629 1033.68 125.629H1035.14C1048.1 125.629 1055.73 119.042 1055.73 110.722C1055.73 102.679 1050.67 97.9639 1040.06 95.8145L1024.18 92.5557C1007.89 89.2275 999.015 80.0752 999.015 64.6133C998.737 49.082 1013.64 35.9082 1034.51 36.1855C1056.49 36.1855 1070.64 48.3193 1071.33 67.3867H1057.12C1056.42 56.1543 1047.34 48.9434 1035.28 48.9434H1033.82C1021.69 48.9434 1013.23 55.5996 1013.23 64.4053C1013.23 71.8936 1018.29 76.6084 1026.89 78.3418L1042.77 81.4619C1060.86 84.998 1069.88 94.5664 1069.88 110.167C1070.08 127.293 1054.97 138.525 1033.13 138.387C1009.55 138.387 994.785 126.877 994.092 105.036Z" fill="#3DD68C"/>
    </g>
    <defs>
        <clipPath id="clip0_1_2">
            <rect width="1110" height="177" fill="white"/>
        </clipPath>
    </defs>
</svg>
