<svg width="200" height="29" viewBox="0 0 200 29" fill="none" xmlns="http://www.w3.org/2000/svg">
<path d="M131.87 23.5346V5.25539H138.396C143.47 5.21715 146.937 8.74807 146.886 14.395C146.937 20.0547 143.47 23.5856 138.396 23.5346H131.87ZM134.483 21.1892H138.141C142.08 21.1892 144.273 18.8182 144.273 14.395C144.273 9.99728 142.08 7.61359 138.141 7.61359H134.483V21.1892Z" fill="#18794E"/>
<path d="M148.971 14.395C148.907 8.6461 152.655 4.94946 157.588 5.00045C162.521 4.94946 166.269 8.6461 166.205 14.395C166.269 20.1439 162.521 23.8405 157.588 23.7896C152.655 23.8405 148.907 20.1439 148.971 14.395ZM157.461 21.4441H157.716C161.106 21.4951 163.63 18.729 163.592 14.395C163.63 10.061 161.106 7.29491 157.716 7.3459H157.461C154.083 7.30766 151.533 10.061 151.584 14.395C151.533 18.729 154.083 21.4823 157.461 21.4441Z" fill="#18794E"/>
<path d="M168.24 14.395C168.24 12.6104 168.584 11.0043 169.285 9.57663C169.986 8.14896 170.98 7.02722 172.28 6.22416C173.593 5.40835 175.11 5.00045 176.857 5.00045C180.744 4.96221 183.969 7.38414 184.173 11.0043H181.56C181.305 8.79906 179.457 7.3459 176.984 7.3459H176.729C173.045 7.29491 170.814 10.4562 170.853 14.395C170.814 18.3338 173.045 21.4951 176.729 21.4441H176.984C179.457 21.4441 181.305 19.9909 181.56 17.7857H184.173C183.969 21.4059 180.744 23.8405 176.857 23.7896C175.11 23.7896 173.593 23.3817 172.28 22.5786C170.98 21.7628 169.986 20.641 169.285 19.2134C168.584 17.7857 168.24 16.1796 168.24 14.395Z" fill="#18794E"/>
<path d="M185.8 17.6582H188.413C188.413 20.1057 190.3 21.4441 193.078 21.4441H193.346C195.73 21.4441 197.132 20.2331 197.132 18.7035C197.132 17.2248 196.201 16.358 194.251 15.9629L191.332 15.3638C188.336 14.7519 186.705 13.0693 186.705 10.2267C186.654 7.37139 189.394 4.94946 193.231 5.00045C197.272 5.00045 199.873 7.23118 200 10.7366H197.387C197.259 8.67159 195.59 7.3459 193.372 7.3459H193.104C190.873 7.3459 189.318 8.56961 189.318 10.1885C189.318 11.5652 190.249 12.432 191.829 12.7506L194.748 13.3243C198.075 13.9744 199.732 15.7334 199.732 18.6015C199.771 21.75 196.992 23.8151 192.976 23.7896C188.642 23.7896 185.927 21.6736 185.8 17.6582Z" fill="#18794E"/>
<path d="M0 23.4551V5.26049H3.5312V20.3338H13.8817V23.4551H0Z" fill="#181818"/>
<path d="M15.9805 23.4551V5.26049H19.5117V23.4551H15.9805Z" fill="#181818"/>
<path d="M35.8376 5.26049H39.7143L32.8438 23.4551H28.2634L21.2394 5.26049H25.1928L30.6304 19.7756L35.8376 5.26049Z" fill="#181818"/>
<path d="M41.5188 23.4551V15.9548H45.05V12.7579H41.5188V5.26049H55.4005V8.38174H45.05V12.7579H53.8268V15.9548H45.05V20.3338H55.6692V23.4551H41.5188Z" fill="#181818"/>
<path d="M58.3181 23.4551V5.26049H66.5703C70.1399 5.26049 72.4685 7.0567 72.4685 10.6423C72.4685 13.8278 70.1399 15.9739 66.5703 15.9739H61.8493V23.4551H58.3181ZM61.8493 12.7392H66.1737C67.9649 12.7392 68.9245 11.8797 68.9245 10.6045C68.9245 9.23179 67.9649 8.38174 66.1737 8.38174H61.8493V12.7392Z" fill="#181818"/>
<path d="M74.8871 23.4551V15.9548H78.4183V12.7579H74.8871V5.26049H88.7688V8.38174H78.4183V12.7579H87.1951V15.9548H78.4183V20.3338H89.0375V23.4551H74.8871Z" fill="#181818"/>
<path d="M91.6864 23.4551V15.9548H95.2176V12.7579H91.6864V5.26049H105.568V8.38174H95.2176V12.7579H103.994V15.9548H95.2176V20.3338H105.837V23.4551H91.6864Z" fill="#181818"/>
<path d="M108.486 23.4551V5.26049H117.007C120.235 5.26115 122.636 6.82967 122.636 9.79271C122.636 12.0499 121.613 13.4227 119.514 14.1966C121.421 14.1966 122.367 15.0594 122.367 16.7723V23.4551H118.836V17.6478C118.836 16.3409 118.452 15.9603 117.135 15.9603H112.017V23.4551H108.486ZM112.017 12.7511H115.958C118.017 12.7511 119.092 12.0689 119.092 10.5787C119.092 9.08845 118.056 8.38174 115.958 8.38174H112.017V12.7511Z" fill="#181818"/>
</svg>
