<svg width="907" height="177" viewBox="0 0 907 177" fill="none" xmlns="http://www.w3.org/2000/svg">
<path d="M699.903 147H676.83V75.7273H700.634C707.618 75.7273 713.615 77.1541 718.626 80.0078C723.638 82.8383 727.478 86.91 730.146 92.223C732.837 97.5128 734.183 103.858 734.183 111.259C734.183 118.683 732.825 125.064 730.111 130.4C727.42 135.736 723.522 139.843 718.418 142.719C713.313 145.573 707.142 147 699.903 147ZM687.584 137.604H699.312C704.741 137.604 709.253 136.583 712.849 134.541C716.446 132.476 719.137 129.495 720.923 125.597C722.71 121.676 723.603 116.897 723.603 111.259C723.603 105.668 722.71 100.923 720.923 97.0256C719.16 93.1278 716.527 90.1697 713.023 88.1513C709.52 86.1328 705.17 85.1236 699.973 85.1236H687.584V137.604ZM769.236 148.079C764.225 148.079 759.851 146.93 756.116 144.634C752.381 142.337 749.481 139.123 747.416 134.994C745.351 130.864 744.318 126.038 744.318 120.516C744.318 114.971 745.351 110.122 747.416 105.969C749.481 101.817 752.381 98.5916 756.116 96.2947C759.851 93.9979 764.225 92.8494 769.236 92.8494C774.247 92.8494 778.621 93.9979 782.356 96.2947C786.091 98.5916 788.991 101.817 791.056 105.969C793.121 110.122 794.154 114.971 794.154 120.516C794.154 126.038 793.121 130.864 791.056 134.994C788.991 139.123 786.091 142.337 782.356 144.634C778.621 146.93 774.247 148.079 769.236 148.079ZM769.271 139.344C772.519 139.344 775.21 138.485 777.345 136.768C779.479 135.052 781.057 132.766 782.078 129.913C783.122 127.059 783.644 123.915 783.644 120.482C783.644 117.071 783.122 113.939 782.078 111.085C781.057 108.208 779.479 105.9 777.345 104.16C775.21 102.42 772.519 101.55 769.271 101.55C765.999 101.55 763.285 102.42 761.127 104.16C758.993 105.9 757.404 108.208 756.36 111.085C755.339 113.939 754.828 117.071 754.828 120.482C754.828 123.915 755.339 127.059 756.36 129.913C757.404 132.766 758.993 135.052 761.127 136.768C763.285 138.485 765.999 139.344 769.271 139.344ZM828.285 148.079C823.111 148.079 818.656 146.907 814.921 144.564C811.209 142.197 808.355 138.938 806.36 134.785C804.365 130.632 803.367 125.876 803.367 120.516C803.367 115.087 804.388 110.296 806.43 106.143C808.471 101.967 811.348 98.7076 815.06 96.3643C818.772 94.0211 823.146 92.8494 828.18 92.8494C832.241 92.8494 835.86 93.6035 839.038 95.1115C842.217 96.5964 844.781 98.6844 846.729 101.376C848.701 104.067 849.873 107.211 850.244 110.807H840.117C839.56 108.301 838.284 106.143 836.289 104.334C834.317 102.524 831.672 101.619 828.354 101.619C825.454 101.619 822.914 102.385 820.733 103.916C818.575 105.424 816.893 107.582 815.687 110.389C814.48 113.173 813.877 116.468 813.877 120.273C813.877 124.17 814.469 127.535 815.652 130.365C816.835 133.196 818.506 135.388 820.663 136.942C822.844 138.497 825.408 139.274 828.354 139.274C830.326 139.274 832.113 138.915 833.714 138.195C835.338 137.453 836.695 136.397 837.786 135.028C838.899 133.66 839.676 132.012 840.117 130.087H850.244C849.873 133.544 848.748 136.629 846.869 139.344C844.989 142.058 842.472 144.193 839.317 145.747C836.185 147.302 832.507 148.079 828.285 148.079ZM901.428 106.596L891.997 108.266C891.603 107.06 890.976 105.911 890.118 104.821C889.282 103.731 888.146 102.837 886.707 102.141C885.269 101.445 883.471 101.097 881.313 101.097C878.367 101.097 875.907 101.759 873.935 103.081C871.963 104.38 870.977 106.062 870.977 108.127C870.977 109.914 871.638 111.352 872.961 112.442C874.283 113.533 876.418 114.426 879.364 115.122L887.856 117.071C892.774 118.208 896.44 119.96 898.853 122.326C901.266 124.692 902.472 127.767 902.472 131.548C902.472 134.75 901.544 137.604 899.688 140.109C897.855 142.592 895.291 144.541 891.997 145.956C888.726 147.371 884.932 148.079 880.617 148.079C874.631 148.079 869.747 146.803 865.966 144.251C862.184 141.675 859.864 138.021 859.006 133.288L869.063 131.757C869.689 134.379 870.977 136.362 872.926 137.708C874.875 139.031 877.415 139.692 880.547 139.692C883.958 139.692 886.684 138.984 888.726 137.569C890.767 136.13 891.788 134.379 891.788 132.314C891.788 130.643 891.162 129.24 889.909 128.103C888.679 126.966 886.788 126.108 884.236 125.528L875.188 123.544C870.2 122.407 866.511 120.598 864.121 118.115C861.755 115.633 860.572 112.489 860.572 108.684C860.572 105.529 861.453 102.768 863.216 100.401C864.98 98.0348 867.416 96.1903 870.525 94.8679C873.634 93.5223 877.195 92.8494 881.209 92.8494C886.986 92.8494 891.533 94.1023 894.851 96.608C898.168 99.0904 900.361 102.42 901.428 106.596Z" fill="#9A9A9A"/>
<path fill-rule="evenodd" clip-rule="evenodd" d="M53.3346 0H34.2151V18.883H53.3346V0ZM17.1069 6.56513e-05H0V138.144H17.1069V6.56513e-05ZM225.909 35.7698C208.511 35.7698 194.951 44.6133 187.787 56.4889C182.158 65.8377 180.111 76.4499 180.111 88.3255C180.111 102.475 184.205 115.614 192.648 125.216C200.324 134.312 211.837 140.123 226.165 140.123C235.632 140.123 244.587 137.344 251.751 132.543C259.938 126.984 265.823 117.888 267.358 108.034H250.727C249.448 113.34 247.657 116.119 244.843 118.899C240.749 123.194 234.097 125.468 226.165 125.468C218.489 125.468 212.349 122.942 207.743 118.393C201.603 112.329 198.021 102.475 198.021 93.3789H269.405L269.661 83.2721C269.917 69.8805 265.056 56.9942 256.868 48.1507C249.192 40.5705 238.958 35.7698 225.909 35.7698ZM198.274 79.2295C198.785 64.5745 207.74 49.9196 225.906 49.9196C234.861 49.9196 241.514 53.457 245.863 59.0157C249.957 64.3218 252.004 71.902 252.004 79.2295H198.274ZM327.819 36.7786C316.623 36.7786 303.645 42.3233 297.792 52.1527L294.739 39.2989H281.761V176.91H298.556V126.755C303.9 135.829 316.877 140.869 327.565 140.869C339.27 140.869 348.431 136.837 355.047 130.788C365.225 121.21 370.315 105.584 370.315 88.4458C370.315 72.0635 365.48 56.9414 355.81 47.3641C349.703 40.8111 340.033 36.7786 327.819 36.7786ZM325.027 127.019C317.648 127.019 312.813 123.994 308.741 120.466C300.344 113.157 297.545 101.311 297.545 88.9613C297.545 76.6116 300.344 64.5138 308.741 57.4569C312.813 53.9284 317.648 50.9039 325.027 50.9039C347.42 50.9039 353.273 70.8147 353.273 88.9613C353.273 107.108 347.42 127.019 325.027 127.019ZM390.067 56.4889C397.231 44.6133 410.791 35.7698 428.19 35.7698C441.238 35.7698 451.473 40.5705 459.148 48.1507C467.336 56.9942 472.197 69.8805 471.941 83.2721L471.685 93.3789H400.301C400.301 102.475 403.883 112.329 410.024 118.393C414.629 122.942 420.77 125.468 428.445 125.468C436.377 125.468 443.029 123.194 447.123 118.899C449.937 116.119 451.728 113.34 453.008 108.034H469.638C468.103 117.888 462.219 126.984 454.031 132.543C446.867 137.344 437.912 140.123 428.445 140.123C414.117 140.123 402.604 134.312 394.928 125.216C386.485 115.614 382.391 102.475 382.391 88.3255C382.391 76.4499 384.438 65.8377 390.067 56.4889ZM428.184 49.9196C410.018 49.9196 401.063 64.5745 400.552 79.2295H454.282C454.282 71.902 452.235 64.3218 448.141 59.0157C443.791 53.457 437.139 49.9196 428.184 49.9196ZM528.81 35.7732C511.411 35.7732 497.851 44.6167 490.687 56.4923C485.058 65.8411 483.011 76.4534 483.011 88.3289C483.011 102.479 487.105 115.617 495.548 125.219C503.224 134.315 514.738 140.127 529.066 140.127C538.532 140.127 547.487 137.347 554.651 132.546C562.839 126.988 568.723 117.892 570.259 108.037H553.628C552.349 113.343 550.558 116.123 547.743 118.902C543.649 123.198 536.997 125.472 529.066 125.472C521.39 125.472 515.249 122.945 510.644 118.397C504.503 112.333 500.921 102.479 500.921 93.3824H572.305L572.561 83.2755C572.817 69.8839 567.956 56.9976 559.768 48.1541C552.093 40.574 541.858 35.7732 528.81 35.7732ZM501.174 79.2292C501.686 64.5743 510.641 49.9193 528.807 49.9193C537.762 49.9193 544.414 53.4567 548.764 59.0155C552.857 64.3216 554.904 71.9018 554.904 79.2292H501.174ZM640 51.4028L636.175 39.2643L600.723 51.6557L597.662 38.7585H584.655V138.143H601.488V67.5876L640 51.4028ZM34.2139 38.7585H51.3208V138.143H34.2139V38.7585Z" fill="#212121"/>
<path fill-rule="evenodd" clip-rule="evenodd" d="M130.082 36.4227H109.269V57.2357H130.082V36.4227ZM130.082 119.674H109.269V140.487H130.082V119.674ZM150.894 36.4227H171.707V57.2357H150.894V36.4227ZM88.4546 36.4233H67.6416V57.2363H88.4546V36.4233ZM130.081 78.0481H150.894V98.8611H130.081V78.0481ZM109.269 78.0481H88.4558V98.8611H109.269V78.0481Z" fill="#00EB88"/>
</svg>
