<svg width="200" height="19" viewBox="0 0 200 19" fill="none"
    xmlns="http://www.w3.org/2000/svg">
    <path d="M131.87 18.535V0.255731H138.396C143.47 0.21749 146.937 3.74842 146.886 9.39535C146.937 15.055 143.47 18.5859 138.396 18.535H131.87ZM134.483 16.1895H138.141C142.08 16.1895 144.273 13.8186 144.273 9.39535C144.273 4.99762 142.08 2.61393 138.141 2.61393H134.483V16.1895Z" fill="#18794E"/>
    <path d="M148.971 9.39535C148.907 3.64644 152.655 -0.0501974 157.588 0.000790725C162.521 -0.0501974 166.269 3.64644 166.205 9.39535C166.269 15.1443 162.521 18.8409 157.588 18.7899C152.655 18.8409 148.907 15.1443 148.971 9.39535ZM157.461 16.4444H157.716C161.106 16.4954 163.63 13.7293 163.592 9.39535C163.63 5.06136 161.106 2.29525 157.716 2.34624H157.461C154.083 2.308 151.533 5.06136 151.584 9.39535C151.533 13.7293 154.083 16.4827 157.461 16.4444Z" fill="#18794E"/>
    <path d="M168.24 9.39535C168.24 7.61076 168.584 6.00464 169.285 4.57697C169.986 3.14931 170.98 2.02757 172.28 1.2245C173.593 0.408695 175.11 0.000790725 176.857 0.000790725C180.744 -0.0374503 183.969 2.38448 184.173 6.00464H181.56C181.305 3.7994 179.457 2.34624 176.984 2.34624H176.729C173.045 2.29525 170.814 5.45652 170.853 9.39535C170.814 13.3342 173.045 16.4954 176.729 16.4444H176.984C179.457 16.4444 181.305 14.9913 181.56 12.7861H184.173C183.969 16.4062 180.744 18.8409 176.857 18.7899C175.11 18.7899 173.593 18.382 172.28 17.5789C170.98 16.7631 169.986 15.6414 169.285 14.2137C168.584 12.7861 168.24 11.1799 168.24 9.39535Z" fill="#18794E"/>
    <path d="M185.8 12.6586H188.413C188.413 15.106 190.3 16.4444 193.078 16.4444H193.346C195.73 16.4444 197.132 15.2335 197.132 13.7038C197.132 12.2252 196.201 11.3584 194.251 10.9632L191.332 10.3641C188.336 9.75226 186.705 8.06966 186.705 5.22707C186.654 2.37174 189.394 -0.0501974 193.231 0.000790725C197.272 0.000790725 199.873 2.23152 200 5.73695H197.387C197.259 3.67193 195.59 2.34624 193.372 2.34624H193.104C190.873 2.34624 189.318 3.56996 189.318 5.18883C189.318 6.56551 190.249 7.4323 191.829 7.75098L194.748 8.3246C198.075 8.97469 199.732 10.7338 199.732 13.6019C199.771 16.7504 196.992 18.8154 192.976 18.7899C188.642 18.7899 185.927 16.6739 185.8 12.6586Z" fill="#18794E"/>
    <path d="M0 18.4554V0.26083H3.5312V15.3342H13.8817V18.4554H0Z" fill="#181818"/>
    <path d="M15.9805 18.4554V0.26083H19.5117V18.4554H15.9805Z" fill="#181818"/>
    <path d="M35.8376 0.26083H39.7143L32.8438 18.4554H28.2634L21.2394 0.26083H25.1928L30.6304 14.7759L35.8376 0.26083Z" fill="#181818"/>
    <path d="M41.5188 18.4554V10.9552H45.05V7.75826H41.5188V0.26083H55.4005V3.38208H45.05V7.75826H53.8268V10.9552H45.05V15.3342H55.6692V18.4554H41.5188Z" fill="#181818"/>
    <path d="M58.3181 18.4554V0.26083H66.5703C70.1399 0.26083 72.4685 2.05704 72.4685 5.64267C72.4685 8.82819 70.1399 10.9742 66.5703 10.9742H61.8493V18.4554H58.3181ZM61.8493 7.73951H66.1737C67.9649 7.73951 68.9245 6.88007 68.9245 5.60485C68.9245 4.23213 67.9649 3.38208 66.1737 3.38208H61.8493V7.73951Z" fill="#181818"/>
    <path d="M74.8871 18.4554V10.9552H78.4183V7.75826H74.8871V0.26083H88.7688V3.38208H78.4183V7.75826H87.1951V10.9552H78.4183V15.3342H89.0375V18.4554H74.8871Z" fill="#181818"/>
    <path d="M91.6864 18.4554V10.9552H95.2176V7.75826H91.6864V0.26083H105.568V3.38208H95.2176V7.75826H103.994V10.9552H95.2176V15.3342H105.837V18.4554H91.6864Z" fill="#181818"/>
    <path d="M108.486 18.4554V0.26083H117.007C120.235 0.261491 122.636 1.83002 122.636 4.79305C122.636 7.05023 121.613 8.42301 119.514 9.19697C121.421 9.19697 122.367 10.0598 122.367 11.7726V18.4554H118.836V12.6481C118.836 11.3412 118.452 10.9606 117.135 10.9606H112.017V18.4554H108.486ZM112.017 7.75149H115.958C118.017 7.75149 119.092 7.0692 119.092 5.579C119.092 4.08879 118.056 3.38208 115.958 3.38208H112.017V7.75149Z" fill="#181818"/>
</svg>
